#!OML:ASF E:\Mandelcareful walks\Project 1\Capture day 1\Session 1\Subject1.ASF
:FULLY-SPECIFIED
:DEGREES
332
root 5.15763 16.7077 -1.10299 -187.756 -81.7805 193.921
lowerback 6.37274 -1.25291 -0.166853
upperback 3.43138 -1.77373 2.33715
thorax 0.0432727 -0.957888 2.6071
lowerneck -18.213 -12.0499 -14.9225
upperneck 19.9089 -14.883 8.97746
head 11.2868 -6.9827 3.2064
rclavicle 5.74488e-014 -5.00937e-014
rhumerus -27.1419 4.78898 -84.9227
rradius 39.2412
rwrist -14.6093
rhand -11.261 -32.3545
rfingers 7.12502
rthumb 14.769 -61.8083
lclavicle 5.74488e-014 -5.00937e-014
lhumerus -34.7268 -39.5642 104.564
lradius 53.9592
lwrist 7.67698
lhand -4.32423 -4.97415
lfingers 7.12502
lthumb 21.4426 23.8592
rfemur -8.45775 -2.20433 10.6976
rtibia 12.8917
rfoot -7.84511 -18.1367
rtoes -6.81755
lfemur -6.97334 1.34256 -2.11815
ltibia 20.7011
lfoot -14.9839 17.9764
ltoes -13.6093
333
root 5.16337 16.7087 -1.09257 -187.325 -81.7055 193.49
lowerback 6.56835 -1.24979 -0.283565
upperback 3.26797 -1.76629 2.38504
thorax -0.228706 -0.951185 2.73025
lowerneck -17.9813 -12.0705 -15.0655
upperneck 20.1937 -14.9551 8.98699
head 11.3732 -7.0354 3.22573
rclavicle 5.46658e-015 -2.38542e-015
rhumerus -27.2073 4.96363 -85.0484
rradius 39.0987
rwrist -13.8782
rhand -10.512 -33.3057
rfingers 7.12502
rthumb 15.4905 -62.7051
lclavicle 5.46658e-015 -2.38542e-015
lhumerus -35.2836 -40.4655 105.031
lradius 54.0449
lwrist 8.09397
lhand -4.03324 -4.93426
lfingers 7.12502
lthumb 21.722 23.867
rfemur -8.42406 -1.29854 10.597
rtibia 12.7442
rfoot -8.02822 -18.9358
rtoes -6.05691
lfemur -6.96274 1.23352 -2.21661
ltibia 20.6179
lfoot -14.8641 18.221
ltoes -13.4154
334
root 5.16093 16.7109 -1.0827 -186.393 -81.6244 192.539
lowerback 6.61718 -1.1983 -0.439939
upperback 3.17305 -1.70095 2.37966
thorax -0.352395 -0.916848 2.81149
lowerneck -17.2781 -12.0925 -15.3186
upperneck 19.889 -15.083 9.28223
head 11.1951 -7.10764 3.37815
rclavicle -5.96354e-016 -3.61788e-014
rhumerus -27.5336 5.34135 -85.3609
rradius 38.9189
rwrist -14.4557
rhand -9.96047 -33.2713
rfingers 7.12502
rthumb 16.0217 -62.6288
lclavicle -5.96354e-016 -3.61788e-014
lhumerus -35.7207 -41.4275 105.421
lradius 54.0696
lwrist 8.19807
lhand -3.81901 -5.22454
lfingers 7.12502
lthumb 21.9278 23.5528
rfemur -8.39262 -0.83262 10.4109
rtibia 12.6841
rfoot -8.13544 -19.3126
rtoes -5.60185
lfemur -6.91146 1.10691 -2.39482
ltibia 20.5446
lfoot -14.9615 18.3794
ltoes -13.6098
335
root 5.14518 16.7137 -1.06129 -183.687 -81.586 189.817
lowerback 6.46565 -1.16967 -0.666414
upperback 3.102 -1.67044 2.25473
thorax -0.340605 -0.899612 2.80476
lowerneck -16.2269 -12.0564 -15.7734
upperneck 19.1175 -15.1757 9.95386
head 10.8304 -7.15337 3.71987
rclavicle -3.51849e-014 2.94201e-014
rhumerus -28.0158 5.68019 -85.6694
rradius 39.0753
rwrist -14.4674
rhand -10.6404 -32.612
rfingers 7.12502
rthumb 15.3669 -62.021
lclavicle -3.51849e-014 2.94201e-014
lhumerus -36.0735 -42.1266 105.767
lradius 54.0297
lwrist 8.05288
lhand -3.86367 -5.5755
lfingers 7.12502
lthumb 21.8849 23.2068
rfemur -8.36329 -1.14439 9.89826
rtibia 12.6651
rfoot -8.01882 -18.9767
rtoes -6.15485
lfemur -6.81077 1.03977 -2.92708
ltibia 20.4927
lfoot -15.1514 18.4839
ltoes -13.5794
336
root 5.12951 16.7088 -1.03579 -181.854 -81.5623 187.908
lowerback 6.40359 -1.20408 -0.781345
upperback 3.04894 -1.71925 2.1934
thorax -0.356768 -0.922551 2.80832
lowerneck -16.555 -12.1941 -15.8793
upperneck 19.7809 -15.3026 9.68297
head 11.1379 -7.23444 3.59557
rclavicle -2.10712e-014 1.43125e-014
rhumerus -28.4038 6.25401 -85.9696
rradius 39.2859
rwrist -14.4446
rhand -10.735 -32.8998
rfingers 7.12502
rthumb 15.2758 -62.3158
lclavicle -2.10712e-014 1.43125e-014
lhumerus -36.2177 -42.2961 105.945
lradius 53.9917
lwrist 7.85913
lhand -3.70615 -5.8315
lfingers 7.12502
lthumb 22.0361 22.9331
rfemur -8.22992 -1.57423 9.49302
rtibia 12.6183
rfoot -7.8393 -18.5532
rtoes -6.84184
lfemur -6.63566 1.13193 -3.35177
ltibia 20.4949
lfoot -15.3109 18.4105
ltoes -13.319
337
root 5.12462 16.7048 -1.01423 -180.16 -81.4895 186.18
lowerback 6.51274 -1.24431 -1.03553
upperback 2.95362 -1.78276 2.19946
thorax -0.503807 -0.953012 2.96664
lowerneck -16.8347 -12.2714 -16.1248
upperneck 20.2413 -15.336 9.60457
head 11.3813 -7.2654 3.58156
rclavicle -4.47266e-015 1.74931e-014
rhumerus -28.6029 6.8572 -86.2575
rradius 39.3127
rwrist -14.6314
rhand -10.7528 -32.9939
rfingers 7.12502
rthumb 15.2586 -62.4111
lclavicle -4.47266e-015 1.74931e-014
lhumerus -36.2813 -42.2263 106.012
lradius 54.0154
lwrist 7.82128
lhand -3.49919 -6.26089
lfingers 7.12502
lthumb 22.2348 22.4801
rfemur -8.11774 -1.37472 9.13347
rtibia 12.4631
rfoot -7.80295 -18.6852
rtoes -6.77635
lfemur -6.63962 1.22736 -3.7081
ltibia 20.6331
lfoot -15.5002 18.3478
ltoes -13.4661
338
root 5.12463 16.7053 -0.997791 -179.326 -81.3012 185.338
lowerback 6.59047 -1.22983 -1.21708
upperback 2.90546 -1.77216 2.18969
thorax -0.591763 -0.946995 3.06132
lowerneck -16.7439 -12.3043 -16.2409
upperneck 20.3528 -15.3725 9.56104
head 11.4177 -7.29933 3.57921
rclavicle 2.6339e-014 -1.11319e-014
rhumerus -28.5728 7.06785 -86.5105
rradius 39.2655
rwrist -14.3344
rhand -10.1488 -32.9994
rfingers 7.12502
rthumb 15.8403 -62.3714
lclavicle 2.6339e-014 -1.11319e-014
lhumerus -36.3602 -42.1682 105.996
lradius 54.1182
lwrist 7.90583
lhand -3.77474 -6.6612
lfingers 7.12502
lthumb 21.9703 22.1111
rfemur -8.03259 -0.754406 8.93975
rtibia 12.2373
rfoot -7.91462 -19.0753
rtoes -6.29423
lfemur -6.70049 1.3482 -3.86768
ltibia 20.7931
lfoot -15.6186 18.3147
ltoes -13.4701
339
root 5.12972 16.703 -0.983001 -182.458 -81.0725 188.602
lowerback 6.53702 -1.1985 -0.723871
upperback 2.8915 -1.70237 2.29802
thorax -0.592194 -0.909814 2.8895
lowerneck -16.325 -12.3022 -16.3846
upperneck 19.9947 -15.4401 9.84874
head 11.2553 -7.32581 3.71212
rclavicle -2.3059e-014 2.74323e-014
rhumerus -28.448 7.22742 -86.8135
rradius 39.3074
rwrist -14.1441
rhand -9.72451 -32.9951
rfingers 7.12502
rthumb 16.2489 -62.3342
lclavicle -2.3059e-014 2.74323e-014
lhumerus -36.4833 -41.9605 105.936
lradius 54.3842
lwrist 7.8998
lhand -4.44512 -6.85564
lfingers 7.12502
lthumb 21.3265 21.9909
rfemur -8.10324 0.0289 9.46342
rtibia 12.0353
rfoot -8.02659 -19.6265
rtoes -5.80868
lfemur -6.85782 1.66799 -3.29239
ltibia 20.9498
lfoot -15.6651 18.1488
ltoes -13.2162
340
root 5.09721 16.6948 -0.955914 -181.419 -80.9846 187.39
lowerback 6.1945 -1.22427 -0.652879
upperback 3.05418 -1.73984 2.18309
thorax -0.238558 -0.932475 2.72053
lowerneck -16.348 -12.3582 -16.4224
upperneck 20.018 -15.5009 9.82118
head 11.278 -7.35738 3.69409
rclavicle 2.28602e-015 5.96354e-015
rhumerus -28.5032 7.4827 -87.1468
rradius 39.554
rwrist -14.2612
rhand -9.44398 -33.3709
rfingers 7.12502
rthumb 16.519 -62.6878
lclavicle 2.28602e-015 5.96354e-015
lhumerus -36.3971 -41.5454 105.769
lradius 54.5761
lwrist 7.85218
lhand -4.91309 -7.11089
lfingers 7.12502
lthumb 20.8769 21.7858
rfemur -7.74892 -0.680813 9.11724
rtibia 11.8877
rfoot -7.82981 -18.8369
rtoes -6.35091
lfemur -6.49074 1.81706 -3.64795
ltibia 21.0465
lfoot -16.0013 17.9901
ltoes -13.3398
341
root 5.09614 16.6931 -0.938209 -180.573 -80.8208 186.489
lowerback 6.1949 -1.20239 -0.752037
upperback 3.06608 -1.71629 2.14527
thorax -0.226009 -0.921511 2.73567
lowerneck -16.8141 -12.4819 -16.3927
upperneck 20.451 -15.588 9.57463
head 11.514 -7.40193 3.55836
rclavicle 9.93923e-017 -5.96354e-015
rhumerus -28.5194 7.36385 -87.2578
rradius 39.8394
rwrist -13.3043
rhand -8.35608 -33.2194
rfingers 7.12502
rthumb 17.5662 -62.4458
lclavicle 9.93923e-017 -5.96354e-015
lhumerus -36.0774 -41.0998 105.539
lradius 54.5527
lwrist 8.08345
lhand -5.07564 -7.40081
lfingers 7.12502
lthumb 20.7207 21.513
rfemur -7.71356 -0.173617 8.90301
rtibia 11.8077
rfoot -7.81654 -19.1906
rtoes -6.55374
lfemur -6.36904 1.89353 -3.8643
ltibia 21.0744
lfoot -16.1699 18.0068
ltoes -13.2771
342
root 5.09554 16.6986 -0.924283 -180.102 -80.6196 186.002
lowerback 6.26187 -1.1413 -0.826957
upperback 2.98875 -1.63521 2.11339
thorax -0.345952 -0.878474 2.7431
lowerneck -16.481 -12.48 -16.6446
upperneck 20.3185 -15.6331 9.8262
head 11.4557 -7.42788 3.69411
rclavicle 1.11319e-014 1.59028e-014
rhumerus -28.7275 8.15268 -87.9386
rradius 39.6941
rwrist -15.4716
rhand -11.6714 -31.1384
rfingers 7.12502
rthumb 14.3737 -60.6208
lclavicle 1.11319e-014 1.59028e-014
lhumerus -35.9878 -40.6165 105.514
lradius 54.4727
lwrist 8.17384
lhand -5.43263 -7.55703
lfingers 7.12502
lthumb 20.3777 21.3938
rfemur -7.79768 0.57056 8.79858
rtibia 11.8568
rfoot -7.93419 -19.7381
rtoes -6.50773
lfemur -6.26332 1.88981 -3.97976
ltibia 20.9764
lfoot -16.2222 18.1559
ltoes -12.9342
343
root 5.09084 16.7063 -0.90985 -179.468 -80.3994 185.382
lowerback 6.28768 -1.07438 -0.963896
upperback 2.87094 -1.54792 2.08135
thorax -0.48348 -0.831447 2.78419
lowerneck -15.8567 -12.4708 -16.9007
upperneck 20.0271 -15.7109 10.1028
head 11.2913 -7.47862 3.84732
rclavicle -3.06128e-014 3.18055e-015
rhumerus -28.7982 7.80387 -88.0301
rradius 40.0557
rwrist -14.0456
rhand -9.73556 -31.9167
rfingers 7.12502
rthumb 16.2383 -61.2567
lclavicle -3.06128e-014 3.18055e-015
lhumerus -36.0459 -40.0351 105.554
lradius 54.4732
lwrist 8.00861
lhand -5.80347 -7.56493
lfingers 7.12502
lthumb 20.0213 21.4236
rfemur -7.91909 1.16621 8.65491
rtibia 11.9469
rfoot -8.11967 -20.0909
rtoes -6.43021
lfemur -6.21006 1.90614 -4.14552
ltibia 20.9257
lfoot -16.207 18.3606
ltoes -12.7971
344
root 5.08339 16.7094 -0.891806 -178.271 -80.176 184.214
lowerback 6.23846 -1.03798 -1.18261
upperback 2.75069 -1.50538 2.02563
thorax -0.578061 -0.807016 2.84767
lowerneck -15.6775 -12.5644 -17.0593
upperneck 20.0671 -15.8781 10.2168
head 11.3236 -7.56189 3.88655
rclavicle -4.37326e-015 2.8625e-014
rhumerus -29.0059 7.92162 -88.2911
rradius 40.4491
rwrist -13.832
rhand -9.37308 -31.9158
rfingers 7.12502
rthumb 16.5873 -61.2269
lclavicle -4.37326e-015 2.8625e-014
lhumerus -35.9636 -39.3254 105.428
lradius 54.4643
lwrist 7.74008
lhand -5.70239 -7.78097
lfingers 7.12502
lthumb 20.1184 21.1974
rfemur -8.01343 1.53747 8.3626
rtibia 11.9562
rfoot -8.25608 -20.2427
rtoes -6.3035
lfemur -6.17872 1.99318 -4.44998
ltibia 20.9246
lfoot -16.1853 18.5456
ltoes -12.9561
345
root 5.08055 16.7063 -0.874814 -178.048 -79.9734 184.041
lowerback 6.11305 -1.04116 -1.22067
upperback 2.72289 -1.50943 1.99786
thorax -0.536596 -0.808465 2.83789
lowerneck -16.2726 -12.6127 -16.7439
upperneck 20.6808 -15.8777 9.76236
head 11.5921 -7.56433 3.64433
rclavicle 4.55217e-014 -2.70347e-014
rhumerus -28.9555 8.04076 -88.5561
rradius 40.7444
rwrist -13.757
rhand -8.78587 -32.5162
rfingers 7.12502
rthumb 17.1526 -61.7791
lclavicle 4.55217e-014 -2.70347e-014
lhumerus -35.5567 -38.5546 105.063
lradius 54.2862
lwrist 7.22278
lhand -5.58014 -8.31914
lfingers 7.12502
lthumb 20.2359 20.6468
rfemur -8.07073 2.00857 8.2609
rtibia 11.8499
rfoot -8.44033 -20.5958
rtoes -5.61221
lfemur -6.15887 2.12372 -4.53348
ltibia 20.9444
lfoot -16.2744 18.5636
ltoes -12.543
346
root 5.07343 16.7032 -0.860125 -178.511 -79.7989 184.547
lowerback 5.66886 -1.05752 -1.10517
upperback 2.91472 -1.53036 1.99198
thorax -0.0945489 -0.826102 2.75385
lowerneck -16.3238 -12.5906 -16.686
upperneck 20.5487 -15.8434 9.80602
head 11.5456 -7.53661 3.65681
rclavicle 3.37934e-015 -2.38542e-015
rhumerus -28.6443 8.12895 -88.7793
rradius 41.1671
rwrist -13.8026
rhand -8.50112 -33.326
rfingers 7.12502
rthumb 17.4266 -62.5648
lclavicle 3.37934e-015 -2.38542e-015
lhumerus -34.8665 -37.9611 104.591
lradius 54.0687
lwrist 6.88904
lhand -6.11342 -8.8225
lfingers 7.12502
lthumb 19.7233 20.1969
rfemur -8.06028 2.34584 8.30405
rtibia 11.6715
rfoot -8.57242 -20.8877
rtoes -5.26493
lfemur -6.10895 2.22301 -4.47336
ltibia 20.9908
lfoot -16.4197 18.5183
ltoes -12.0684
